<mxfile host="app.diagrams.net" modified="2024-05-31T14:53:46.456Z" agent="Mozilla/5.0 (Windows NT 10.0; Win64; x64) AppleWebKit/537.36 (KHTML, like Gecko) Chrome/125.0.0.0 Safari/537.36" etag="I4eJ-WxUULGSxgLeMjU7" version="24.0.4" type="device">
  <diagram name="Page-1" id="ndKCIcGPCOFgTN9b30Mv">
    <mxGraphModel dx="1612" dy="786" grid="1" gridSize="10" guides="1" tooltips="1" connect="1" arrows="1" fold="1" page="1" pageScale="1" pageWidth="850" pageHeight="1100" math="0" shadow="0">
      <root>
        <mxCell id="0" />
        <mxCell id="1" parent="0" />
        <mxCell id="hBSMCjiyqETx0WuHkrVj-1" value="Client" style="image;aspect=fixed;html=1;points=[];align=center;fontSize=12;image=img/lib/azure2/general/Browser.svg;" vertex="1" parent="1">
          <mxGeometry x="130" y="642" width="65" height="52" as="geometry" />
        </mxCell>
        <mxCell id="hBSMCjiyqETx0WuHkrVj-6" value="" style="verticalLabelPosition=bottom;html=1;verticalAlign=top;align=center;strokeColor=none;fillColor=#00BEF2;shape=mxgraph.azure.user;" vertex="1" parent="1">
          <mxGeometry x="80" y="642" width="47.5" height="50" as="geometry" />
        </mxCell>
        <mxCell id="hBSMCjiyqETx0WuHkrVj-7" value="Developer&lt;div&gt;Abdul Jameel&lt;/div&gt;" style="shape=umlActor;verticalLabelPosition=bottom;verticalAlign=top;html=1;outlineConnect=0;" vertex="1" parent="1">
          <mxGeometry x="98" y="400" width="30" height="60" as="geometry" />
        </mxCell>
        <mxCell id="hBSMCjiyqETx0WuHkrVj-8" value="Source Code" style="dashed=0;outlineConnect=0;html=1;align=center;labelPosition=center;verticalLabelPosition=bottom;verticalAlign=top;shape=mxgraph.weblogos.github" vertex="1" parent="1">
          <mxGeometry x="290" y="400" width="75" height="75" as="geometry" />
        </mxCell>
        <mxCell id="hBSMCjiyqETx0WuHkrVj-9" value="" style="image;sketch=0;aspect=fixed;html=1;points=[];align=center;fontSize=12;image=img/lib/mscae/Azure_Pipelines.svg;" vertex="1" parent="1">
          <mxGeometry x="503" y="412.5" width="50" height="50" as="geometry" />
        </mxCell>
        <mxCell id="hBSMCjiyqETx0WuHkrVj-10" value="" style="endArrow=none;html=1;rounded=0;" edge="1" parent="1" target="hBSMCjiyqETx0WuHkrVj-8">
          <mxGeometry width="50" height="50" relative="1" as="geometry">
            <mxPoint x="130" y="440" as="sourcePoint" />
            <mxPoint x="340" y="640" as="targetPoint" />
          </mxGeometry>
        </mxCell>
        <mxCell id="hBSMCjiyqETx0WuHkrVj-11" value="Push code" style="edgeLabel;html=1;align=center;verticalAlign=middle;resizable=0;points=[];" vertex="1" connectable="0" parent="hBSMCjiyqETx0WuHkrVj-10">
          <mxGeometry x="-0.3613" y="-4" relative="1" as="geometry">
            <mxPoint as="offset" />
          </mxGeometry>
        </mxCell>
        <mxCell id="hBSMCjiyqETx0WuHkrVj-12" value="" style="endArrow=none;html=1;rounded=0;" edge="1" parent="1" source="hBSMCjiyqETx0WuHkrVj-8" target="hBSMCjiyqETx0WuHkrVj-9">
          <mxGeometry width="50" height="50" relative="1" as="geometry">
            <mxPoint x="290" y="690" as="sourcePoint" />
            <mxPoint x="340" y="640" as="targetPoint" />
          </mxGeometry>
        </mxCell>
        <mxCell id="hBSMCjiyqETx0WuHkrVj-15" value="CI/CD" style="edgeLabel;html=1;align=center;verticalAlign=middle;resizable=0;points=[];" vertex="1" connectable="0" parent="hBSMCjiyqETx0WuHkrVj-12">
          <mxGeometry x="0.3043" y="2" relative="1" as="geometry">
            <mxPoint y="1" as="offset" />
          </mxGeometry>
        </mxCell>
        <mxCell id="hBSMCjiyqETx0WuHkrVj-16" value="Create Resource" style="shape=image;imageAspect=0;aspect=fixed;verticalLabelPosition=bottom;verticalAlign=top;image=data:image/png,iVBORw0KGgoAAAANSUhEUgAAAeAAAADwCAYAAADYdbe6AAAABGdBTUEAALGPC/xhBQAAAAFzUkdCAK7OHOkAAAAgY0hSTQAAeiYAAICEAAD6AAAAgOgAAHUwAADqYAAAOpgAABdwnLpRPAAAAAZiS0dEAP8A/wD/oL2nkwAAAAlwSFlzAAAASAAAAEgARslrPgAAH99JREFUeNrt3Xt0VOW9//H3MwkEsSJWq5iL4l2g2oKo9Z4oVVEykXUaTzUJ2p4Wen5thV6srJ6emva0v8Lq+bXEtqdHejUZ0GN61MyAvXghoPamYhUVL6hVMoOiCGoVQjLz/P54Ji2XSWbPZO7zea2VpSR79uz93Xvmu587iIiIiIiIiIiIiIiIiIiIiIiIiIiIiIiIiIiIiIiIiIiIiIiIiIiIiIiIiIiIiIiIiIiIiIiIiIiIiIiIiIiIiIiIiIiIiIiIiIiIiIiIiIiIiIiIiIiIiIiIiIiIiIiIiIiIiIiIiIiIiIiIiIiIiIiIiIiIiIiIiIiIiIiISJa0t1ufoiAiIjI6JtUXtDZGvoqJHR21vn+7NVT9hkIoIiKSutRLs8aOATO/Evtsqz+ysLnZViiMIiIiqUm7Otka3g92WdWuyIa2psglCqWIiIh3o2/PNUyx1v6mzR8OXX35a8cqpCIiIsllrEOVhTm+isGNLY3hjk/6Xz9IoRURERlepns0jzWG63az+5k2f2S+ekyLiIgklq0EWW2xN29aH/lTa1P4bIVZRERkb9kuoc7E8mCrP3L7vMbIUQq3iIiIk4sqYgO2OWbs063+cPu19S+NU9hFRKTc5bKN9kDgxuiEsc+1NvXNU+hFRKSc5byTlIU6rLmlzR+5f55/86m6BCIiUo7y1kvZYhti+B5raerrbJv76uG6FCIiUk7yPUzIZ6xps9HoM62N4Ruam58aq0siIiLloFDG6R6CYUlV/8Qn2po2X6bLIiIipa7QJso4yVrf6hZ/+J6Wpi1TdXlERKRUFeRMVQZmGWv/0tIY7mhufuFgXSYRESk1BTxVpB1jDNdV9Y97QcseiohIqSmGuZoPBbusqj/y59amyHm6ZCIiUgqKabGEGVi7rs0fDl17xZbJunQiIlLMim61IgtzBmOxp1ubwkuam7e+T5dQRESKUbEuF3gAlhuq+geecdNaWqNLKSIixaTY1+utwZpb2hq3/LGlse8jupwiIlIsij0BA2CNPcMY8/uWpr7Oay/bOkmXVURECl1JJOA4Y6xpG6wc2NTqD7d/fvbzVbq8IiJSqEopAQ85ELhx+5jxT7b5+5p1iUVEpBCVYgIecrzF3N7aFL63pWnzKbrUIiJSSEo5ATuWi4z1PdzaFF7S3m5L/3xFRKQolEtCqsJyw1NPPV2pSy4iIoVAJUIREZE8KPsErGrpgrkSug4iUlbK/ktv0/rIOs2mlT+zZq06tr4+GGpoOO1SRUNEyknZJ2Cr2bTyYvbsuydccEGwY2AgthGYo4iISLlRtV9cfDath1qa+jqv8r92hCKSLe2+hobg/J07o88Yw3XGMFYxEZFypF7Be/MZa9oqGJzb6g//v0MG3vvOD359Qr/Ckhn19aFzwS6zltPAKiAiUtZUAk7sfbjZtDZoNq3Ru/DC1Uc3NIRuB7sOOE0RERFRCTiZE+Kzad1nBisWda2e9KRC4t1ZZ91+QFVV1Q3RaPR6YxiviIiI/INKwF5YLrIV0cda/X03X9UYOUwBSRow09AQmldVVfUcmBuVfEVE9qcE7F0lmPmV2Gdb/ZGF9fVWtQcJ1Nev/nB9fWiNtfYWMLWKiIhIYkrAKbKG94NdVjchsqHVH9HY1biLLuo5oqEh2Glt9FHgAkVERGRkKsWlycLJYH/d5g+vikYrF65cfcSL5RiH2bPvrtq5c3BRNMpiYKLRdCYiIp6oBDxKFub4KgY3tjSGO1pmb5tQTud+wQWhxp07BzcAS4CJuhtERLxTAs6MscZwnRmza2ObPzK/1OeXbmgITquvD91jjA0CJ+jyi4ikTgk4s6ot9uZN6yN/avGHzym1k6uvDx12wQXBm601j4GdpcstIpI+tQFnx0wDD7T6I7/yWb7cGap+pZhPprn59orXX6/6nLX268Z1QtMVFhEZJZWAs8eAbY4Zu7HVH26/tv6lccV4Eg0Nqy55/fVxG8Asc8lXREQyQQk4+8YDN0YnjH3OLXtYHIaWCbQ29htgii6jiEhmqQo6RyzUYc0trY2RT2BjiwKrah8vxOM855yegyorzbcGBmKf0UpFIiLZoxJwrhlbj8+sb2nq62yb++rhhXNgbpnAykqjZQJFRHJAJeD88Blr2mw02tjaGF7SP27H97u7p+3O18FceOFdZ8divg5rmamJNEREckMl4PyaiGFJVf/EDa3+vstz/eazZoWOamgI3R6L+R4EZupyiIjkjkrAheFEMKta/OF7K61v0S2hI5/K5pvV168ZB28vHhiwWiZQRCRPVAIuIAZmRY19rKUx3NHc/MLB2XiPhobQPHhHywSKiOSZEnDBsWOM4bqq/nEvtPojC5ubbUUm9trQEPpQfX0wvkwgdYqziEh+pZyAjaUPTYWUC4eCXVbVH3n4an/k/HR3cvHFdxze0BDsjMXseqBeYRURKQwpJ+CuUM3PTIWZZuG3Cl9OTPdh17b5w6G2xleP8fqi5ubbx9bXB2/YvbvyWWtpM0a1HSIihSStL+WuO6s3rgjWXGoMfuAlhTH7LMyxJvpUa1N4ySf9rx800rYNDT2Xb91apWUCRUQK2KhKRV09NaH+qh0ng1kEvKNwZt0BWG7YzcBjrf7wR/f9Y3196LD6+p5ua80qY8yJCpdI1vmAU4BZwFygOf7fBmA6MBmNNpFhjPrGiE8g0fFx/yvdlfhuBPMp1Lkry+xxwDXAPXv91sZOMcZ8TPERyapKXJK9BjiH5LVMu4ANwPr4z09QPxohg4nytuBRkUCwdoHBnAn8XqEVkRI0G9gE3A5cjrcmnnHA6cAC4Fso+UpcxqtGuoLVj4A9t80f/pjF/CdwlMIsWTAD98VWiCLAX3WJSk478HVgNBO2vqAwypAstU0Y2xWku+3iV++246LXAzdQuF+WUpzupHAf7pYBX9AlKimfBm7MwH6UgOXvstpW2/W7Se8GgjXtg4YTrbFdCreIFKEjcA9VmfCiwilDctJZ6raems0remrnxbAXAk8o7CJSRD4HGZu2VSVg+buc9lZeGaxdc/yM6ukYew2wVeEXkSJwTQb3pRKw/F3Ox6e1t5sY0Hn15S+HfJWVN2D5AmjxdxEpSEfhfe70GPAg8Gcgiis1vx+YhBsrfDhKwLKHvA0QX7n66O3A4lZ/+BdY8z2MvUyXQ0QKzBket9uOm4xj/QjbHAZsU0hlSN4nzAgEa54NhKov9xk+CjytSyIiBaTW43bfY+TkC/AGGgMseyiYGas6e2ruHT9py4fdtJbmLV0aESkAXtfl1uRDkrKCmqN0+fKZA0DHvLl9geig+boxfBaoKKRjlILxc1z7WqomAvM8bLcNWJHmsa3V5SkZEzxu94ZCJakqyEnCO++s3QYsbG2M3IKxy4DzdKlkH99I83Un4S0BvwosVJjLntdawvcUKsnWzZUXgVD1+kCw5nxj8FtN7SciIiWkKFYt6uqpCe2uik3Fshj4my6biIgUu6JZNrC7u25nIFSz1BeLnRyf1lK9CUVEpGgV3ULRnavqwsC8q6/Y/ENfzNcBfESXUQpUHXA28CGgGjen8J6fud3Ay7jJGZ7ADWNJtzPPOOCAEf4+QPLaozpc+/jLQGCfvx3MyA/sf4u/x3B8wAXAJ4DrgB1JjuVA4IPACfG41eImshjL3ksAbse1v74LbIzH8PH4v3NpAnBIkm2sh/MmQdxPA6YDk+M/+y5ssx3XRPcC8Ej8XhpI8zzGxmM/nCjwdpJ9fABowU1MctM+fzuI4fNOP97b0o/BLfF40h73xxHxe+R13PrLK4E1KZ5/JTAVmAkcDdTgJlI5PP553Qr8CbgDeH60N03RJeAhK++q+zPYs1ubwm1YszQeJJF8m4BbOacF96WZiijwALAct95sNIXXLgSWjPD3P+AeBhI5F/gKbn1bH/Aj9k/A64FjR9j/NUBngt+PBz6JWx1q6PXfZe9EZHBfevW4DpczgONIv4YuCjwG/Aq4BdehLpnfAheP4ro/6mGbLbgHMS/30DygGTiH1EeCvBM/nwAQwiVCr5oTXPs9vYJLTIl8OH4ffQwYA9zF/gl4FXD+MK/vBRqG+dsJwFzgItwDyaEjHOOxwJnAp4D7cA99m0fYfmb8vM+Ln8MBSWI0F/hO/HP6FZI/kAyraKqgEzM20FPbaXZVHI/rFdtf3OcjRWxs/MP4CvCfpJ58wX3R1uOe3J8Azsrg8Z2Q4Hf1uIT/ANC4x/dBbRr7P3Gff4/HLUP6V+AH7J28953a8T+AJ4EfAv8cP9bRfDdV4L5Ul+BK89/EJYR8S1a7UQV8FeiLx+x80huGeRAuCd4FPANckcFzqGX/BHUacDfuIe2qPWJdk+K+z2Hv2o2j97g3ngOW4h6SDk1hnxfhHj4n7/P7qbgHwZeAh+Of3bNInnyHGGAB8DtGsVBHkSdgZ2jZQ4h9EEx3KZyTFJUPAPfGvyAOztA+p+LGE38yQ/s7jH+Mmz4F+DWueu7cBNvWpbH/oQTsw5U8nsMlwA8k2HbfBP882TMW+Pf49TmE/HozyfV+BPg2LoFmygm4tbNvxfuY5pH4gOPj/38McBsugc3GJaWRrnMyY3AJdgbuIXQT8DVg2iiPuQb4n/ixXwisxiX1L7N/Yk7VmcCP031x0VZBJxII1m0CrmyZ03eR8fm+D/aUUjo/KUhHAvcDJ2dh32OAnwKDJK7eTdVpuJLRpxj54TudBHwSrtT5U1ybNynsf2MOrtP5uC/eC0i/fXS0hpsHeiauJJXNB4SP4xLnJYz8IODFKbgmli8ycs3CEbgHoN0p7Pu/sxSHM3Bt5JOzsO82XI3FI6m+sCRKwPtasar2vr63j5xhMAvQDDWSPRW4EsDJWXwPg/tSysR73AHM9/C5P4z9O/okMwW3EtCHPGy7b8loI7kZ1XAWrtSTL4kS8JFAkNyUzmfiSpaj/d6/Gde8kKxa30fqfXOyGYfJWfyMfiadF5ZkAgbo7TWDXcHq5f1VsZOs5SZcKUIkkz7P8B1KMukAYFkG9vM+j9sZ0qs+rPK47b4l4Hdw7Z658BUyUxWbjm0J4hzAJeFcuQT4Uo7uI0ivP0Exuoz9q+CTKtkEPKS7u+7NFaGahQZzFkyNlvr5Ss4MdZjJlUtIr2NXurL5xZmointjjs5rIq7Haz7sm4DrcW2SufY1UkuihXofFZIjSaOEXVJtwCPpClY/Ui7nKjkxl8QdjBJ5Azdk4R5cL+khxwFzcMOWvPS+vBo3vCYX6rK470Rfyhv5xzCgv+F67z6NG7qzHTdsaehn6EH6YFzb83m44SteS+AXAz/b53d3k3i62zPxVq3+HSDZKm737vPvVKstN+OG6jyNa8etxPUInopr2/Zakp6Aa8O9OQf3UbkkYHDNRC+l8oKyScAiGfYJj9utwyXrRB1fXsQl5Z/gOnIlS+gfx1WhZrO9dAeuujuYpf0/ArQn+P3Pgd/gEu/LaZzjMbj2TS8T88xI8LuOYbZdircE/GNGHmu6rw/gfXjQG8Bngf9l+LHhY3EPct/F28PcfLKbgN/FjSfvzMK+t+OG6T0Vv0/OJjO1QzFc7/1n4p/Ng4BZ8XvLi5QfNso+ARv3oZlc7nHIs52xmH29iI63guEntdjTVuCfSN7r9Elcp5afe/iA15Cd9tLXcKW4n5KdWaTWAF/HddRK5In4T7pewk0k8hLJ23iPw5We87nu+Lm4pJnMDtz42OeSbLcbl/DCuM52ydojp+M6PG3P8HntwA0/+y9c234mRHG1B3fjHlSHEu8QH66j4qfT+e4BenAThPwON4vWnsbjHgy9rMiXcrV+ybcBJ3P8jOp6jL0m/gUkOWQtMWtZHo0OHLd2rf/hIjr0KR4/bD/Gey/8W/H2hTUtw+eyE/hW/Jw6yHzyfQpowk2I8GCWr8ubuC/TZAy57fiUyOket/smyZPvnu7CjfH2EoPTM3g+A8D3cU0CS8lM8o0Ai4GjgEtxs2o9yf61I7H4PZzqffnp+H1wFW7t70SFgPdwE+t4cWCqJ1j2Cbi93cQCPbWd/VVjNJtWbj3k8/nOWLvWv+CBB/5pS5Edu9fx5femsM9duPlrk8nkkKcuXGnw38l8SWgbbnrKU3HV2blaPOVJj9vlqyf0EC9VphY3lWaqbsngMXhxd/y+/CKu1me03gUW4cYtL8Ul4mT68DbSpQ/XlHMqrrbHSy2I13bdlGctUxtwXHf34X8D2q+es3mFz1fxbbDNZR+U7HjZWnv92rX+X4Ep1hWt3u/1XFPcr5damMMycPxPA58j9YnqvbC4Nu2vMvzEE9nk9UEi3wnYy3XcRHqTZjycwWNIdn9/HjffdCa9wvBt8sOJ4RJwspz2IG5WrFRkbeKWsi8B72vlqrrnA8HqK23MzsLYJxWRjNkJ9hsHHWSmrl3b1F3EyRe8Tzf5Xor73eVhm9FOU/gTXNVjNpLvTlxV4QLyk3zB+6xLB5BfXiacSLdfxNYMHsNwunGd0zKdfMuKSsDDWLGq9r76eju9bsKWT1rst8lMyaMcWWMIWFv51d7ey/pK5JwOzNJ+vTyUjHb85t2k/mDg1du4jizFwOT5/b3cQ7vS3LfX143mYe4e8tuJrSSUfQJua9p8ZldP3Z8S/a231wwCy5ubN/9q7C7fjcbwWdJbnaRM2b8YYxatWeNfW2In5vXLexOptX16+VLW/Vde91CpH0NZK/sEHLO+29r8kZcM0UWdwbqEwyC6u+veBBa2zY38t43a7+Gq2WR4rxljvrJmzfoAtMfKOA4TdSuIyHBUBQ1YbIPF91hLU98Kn6/yy113TkrYhtJ1Z/VGYHZbU7jRWrsMzLGK3l76gWUQXbJmzdwdCoek6X245e1Ox63gdDCuvfJAko+dHVvaoZFSogT8Dz5jTZuNRue0NoaX9o/b8f3u7mkJO3R09dSEmpuf+m1V/yH/Cvab5L9HZSFYFYuZL65b1/i8QiFpOgQ37OQqcjdXsUjeqBd0oi8Bw5Kq/olPtDVtvmy4jbq7p+0OBKs7BolOAbsc1w2+HD0FsY/29voblXxlFE4F/oKbHEHJV8qCEvDwTrLWt7rFH76npWnL1OE2ui14VCQQrF1gMGcCD5VRfHaAXfTOO1um9/ZecW8ZnbdkXg1uur+jFAopJ0rASRiYZaz9S0tjuKO5+YVhx392BasfCQSrzzPYK9l7xZtSE7WWm6qqxh7X29vU8eijCwZK+FwlN75B/qeGFMk5tQF7YscYw3VV/eNaWv2R/+ivOvKH3d0mwaokxnYF6Z7fGFn9nrFfwU2wP66E4vDbWKziC+vWzdlYOueUVW8z/Oo16XqvGAMxgsNxS+OJlB0l4NQcCnZZVX9kXmtTZFGgp/qBRBstD1W/B7R/vCn8swrst401bcV80tbyIphFa9f6NetNak4ntYn0y9GlpPaQGsNN2blzmL+/D5fURQqeqqDTMwNr17X5w6Frr9gyebiNbuup2byip3YevlgD8HgRnuc7YBcdfviuKWvXNir5/kMxT6NZaD7icbtfACcCVUA1bhGJRD8Li+S8vTTdpDvpitfX7S6QWJQtJeBRsDBnMBZ7urUpvKS5eeuwPTcDd9X1Hj+jekZ82cOtBX9e8WUCx4yxJ/f2NnV0d1+pD+re3va4ncakJjfFwzZPAp8CnsfbijfFwMs0julOFel1rvLtBRKLsqUEPHoHYLmhqn/gmdamvnlgE07vNrTsYaVv90kYllKgT5/Wmt8bY89cu9a/4J57miKFeIwFwOscuBMVqozE6A+U3jA/L8nvBNIrBZ/kcbs3Cycc5UkJOHNqsOaWtsYtf2xp7Bu2Wu2Xdx2zI9BTs9hXYU8Bs7pQDt5aXrHWXrl27Zxze3ubHtHlHJHXksMpJR2FzPAyic1rJXjef/WwzUHAmWnse5bH7V7U7ZdfSsAZZo09wxjz+5amvs5rL9s6abjtOu+sfS4QrJ7jM3zUwlN5PORdYL8xYYKZUgLLBObKEx63u0qhSspLlfJBJXjef/a43ddIbdGEDwD/muFjkCxRAs4OY6xpG6wc2NTqD7d/fvbzVcNt2NlTc++Bk7ZMB7MIzFu5PUi6YrHYib29Te2hUGOpDW/JpmfxVg19HjAvA5/R6cCHSzSWXuJ4tNdbGtcRqxh4TX6zge/hbcTKEcCdeOsF/lb8PpY8UgLOrgOBG7ePGf9km7+vebiNli+fORAIVnf4KmLHWctNZH7s6L4eB9OwZo1/3rp1V2zWZUpZDPijx21/AfwA14PXi0nAJbiSTw9uUfb1wPUlGksv1cuXAFNH+PshwGdwNRPfKpLzfhh4yeO2i3DTdP4fXKe1PUvEVcBZwLdxNWnneNzn/1C+0+cWDI0Dzo3jLeb21qbwfZbYF1b01G1ItFHnnbXbgIXz/OFfxmAZcH4mD8Jatvp85vo1ax4t92UCM6EblxiS8QGfi/+8AjzD3qW+CcABuOkYa3FfqImcXqJxXA/MSbLNAbiOWLcCL8TjdwRQB3wIN490sU14EwOWA9/xuP004EdDH2VgB+77O93q+R/pI5x/SsC5ZLnI4Fvf6u/7edT6/u3WUPUbiTbrDNY8Blzglj2kAzhmVG9r2W0M3zdGywRm0G240takFF5zFOnPd3w8rqRXakNH/uBxuwnAghI7958Bi/E+bGiIid8L6fot3vsxSBapCjr3KsHMr8Q+2+qPLKyvt8M+BHX11IT6q2LTsCwG3knv7czqysqKU3p7/Yt7e5V8M+hdXDVxrhhgZgnG8R6gXJtBXif3TQvvAtfp41sYlIDzxBreD3ZZ3YTIhlZ/5NLhtuvurtsZCNUs9cViU6yxXXifhSm+TGDjnPvuu1zTIWbHz4E7cvh+pVgNHQV+Wsb30E+AW3L0XhaYj6ZHLRhKwHlm4WSwv27zh0NXX/7ascNt17mqLryip3aetb4zrRmp2s68pWUCc3n5aAV+l6P3O6NE4/hdXNtuufoU0Jnl99gN/AuwUh/bwqEEXCAszPFVDG5saQx3tMzeNuzkBCtCRz4cfqv6fINZtu/fKip8z/l8TNMygTm1E2jEdZrLdse2KQUfjfRj+M/AtlHuJwb8Eri4yM5/ELgGl4iz0cb/JK539C/0cS0sSsCFZawxXGfG9D/T5o/Mb2+3Ca9Pb68Z7ApW7zdb1f33N4bvv78xrDDm3G7gC7hZi4JkdhhZGLgZuAzX27dUPQo0ABvSeO27uBLkdOATuHblYlyT+2e44WpLGf3DCMBGXJXzdECz2xUgU+4BaPGHXzIwuUAvzqMxWLgiWPOQbtWMOQz4koftXgU60nyPScAVuGFKZ+BW70nGAhHc2NDHcb2Df4/3saJnAvUetrsDt6hBqhaQfN7md4EfjvL6VOCS6LW48a3DFRI2Aw/hkm03+3dSnMvIY6//F9jk4XhOxdvcyqvJ7FrN44ALcQ9eZ+CGWyVb3GMHLtE+BKzCPdSkOrPdVFyNTjK/Ib0V3q7GDR8byTbS6xfwJZKP7NmIe0hOxaG42olkHozH3jMl4AJOwHEWzK9ig1y/8u7ql8v9ehWpw+I/E+M/Q2M3t+NWVnobl2j7Faq9HIGb2eow3Pjod+IxCwN9ZRYLH+5BbjL7j3nejptbelt5haT4KQEXfgIe8h7w3cq3dy/5Ze8xu3TriogUN7UBF4/xwI2DE8Y+P9KyhyIiUhyUgItPrVv2MPJ/FQoRkeKlBFykrEnakUFERAqYErCIiEgeKAGLiIjkgRKwiIhIHigBi4iI5IESsIiISB4oAYuIiOSBErCIiEgeKAGLiIjkgRKwiIhIHigBi4iI5IESsIiISB4oAYuIiOSBErCIiEgeKAGLiIjkgRKwiIhIHigBi4iI5IESsIiISB4oAYuIiOSBErCIiEgeKAGLiIjkgRKwiIhIHigBi4iI5IESsIiISB4oAYuIiOSBErCIiEgeKAFbvgfmLd0KIiKSS2WfgFeEan4Qiw4cg2EpsFu3hIiI5IJKwMDK1UdvD/TULAZOxZq7FREREck2JeA9BII1zwZC1Zf7DB8FnlZEREQkW5SAE+jsqbl3/KQtHwazSO3DIiKSDUrAw1i+fOZAIFjd4auIHWctNwFRRUVERDJFCTiJzjtrt60I1SzEmjOABxQRERHJBCVgjwKh6vWBYM35xuC38FdFRERERkMJOEVdPTWh3VWxqVgWA39TREREJB1KwGno7q7bGQjVLPXFYidbY7sAq6iIiEgqlIBHoXNVXXhFT+28mC/2EeCPioiIiHilBJwBK++q+3MgWH02xl4DvKqIiIhIMkrAGWNsoKe20+yqOB74BtCvmIiIyHCUgDOs63eT3g0Ea9oh9kEw3YqIiIgkogScJYFg3aZAsPpKG7OzwGxQREREZE9KwFm2YlXtfX1vHznDYBYAbygiIiICSsA50dtrBruC1cv7q2Inxae1HFRURETKmxJwDnV31725IlSzMGrNKcBvFBERkfKlBJwHt4aqnwkEa2Ybgx/si4qIiEj5UQLOo66emlB/1VtT3LKHvK2IiIiUDyXgPOvunrY7EKzuoHLgZLDLgZiiIiJS+pSAC0TgjslbAsHaBTGfOQN4SBERESltSsAFZuVd1Y8GgtXnGeyVGF5WRERESpMScEEytitY2z0+ZqbiprXcpZiIiJQWJeACtjxU/V4gWNNuK+0JWvZQRKS0KAEXgRV31Pat6Kmdhy92IfC4IiIiUvyUgItI4K663uNnVM/A2GuwZqsiIiIikmPt7VYPTyIiIiIiIiIiIiIiIiIiIiIiIiIiIiIiIiIiIiIiIiIiIiIiIiIiIiIiIiIiIiIiIiIiIiIiIiIiIiIiIiIiIiIiIiIiIiIiIiIiIiIiIiIiIiIiIiIiIiIiIiIiIiIiIiIiIiIiIiIiIiIiIiIiIiIiIiIiIiIiIiIiIiIiIiIiUgb+P+YFP7ScuxtmAAAAJXRFWHRkYXRlOmNyZWF0ZQAyMDE4LTA4LTI0VDAwOjE1OjM0KzAwOjAwl/GPfgAAACV0RVh0ZGF0ZTptb2RpZnkAMjAxOC0wOC0yNFQwMDoxNTozNCswMDowMOasN8IAAAASdEVYdEVYSUY6T3JpZW50YXRpb24AMYRY7O8AAAAASUVORK5CYII=;" vertex="1" parent="1">
          <mxGeometry x="620" y="410" width="100" height="50" as="geometry" />
        </mxCell>
        <mxCell id="hBSMCjiyqETx0WuHkrVj-19" value="" style="endArrow=none;html=1;rounded=0;" edge="1" parent="1" source="hBSMCjiyqETx0WuHkrVj-9" target="hBSMCjiyqETx0WuHkrVj-16">
          <mxGeometry width="50" height="50" relative="1" as="geometry">
            <mxPoint x="410" y="690" as="sourcePoint" />
            <mxPoint x="460" y="640" as="targetPoint" />
          </mxGeometry>
        </mxCell>
        <mxCell id="hBSMCjiyqETx0WuHkrVj-20" value="" style="endArrow=none;html=1;rounded=0;exitX=0.75;exitY=0;exitDx=0;exitDy=0;" edge="1" parent="1" source="hBSMCjiyqETx0WuHkrVj-18" target="hBSMCjiyqETx0WuHkrVj-16">
          <mxGeometry width="50" height="50" relative="1" as="geometry">
            <mxPoint x="410" y="690" as="sourcePoint" />
            <mxPoint x="460" y="640" as="targetPoint" />
          </mxGeometry>
        </mxCell>
        <mxCell id="hBSMCjiyqETx0WuHkrVj-26" value="" style="endArrow=none;html=1;rounded=0;entryX=0;entryY=0.327;entryDx=0;entryDy=0;entryPerimeter=0;" edge="1" parent="1" source="hBSMCjiyqETx0WuHkrVj-1" target="hBSMCjiyqETx0WuHkrVj-18">
          <mxGeometry width="50" height="50" relative="1" as="geometry">
            <mxPoint x="410" y="690" as="sourcePoint" />
            <mxPoint x="460" y="640" as="targetPoint" />
          </mxGeometry>
        </mxCell>
        <mxCell id="hBSMCjiyqETx0WuHkrVj-27" value="" style="group" vertex="1" connectable="0" parent="1">
          <mxGeometry x="280" y="570" width="520" height="300" as="geometry" />
        </mxCell>
        <mxCell id="hBSMCjiyqETx0WuHkrVj-18" value="" style="rounded=1;whiteSpace=wrap;html=1;" vertex="1" parent="hBSMCjiyqETx0WuHkrVj-27">
          <mxGeometry width="520" height="300" as="geometry" />
        </mxCell>
        <mxCell id="hBSMCjiyqETx0WuHkrVj-4" value="Static App" style="image;aspect=fixed;html=1;points=[];align=center;fontSize=12;image=img/lib/azure2/preview/Static_Apps.svg;" vertex="1" parent="hBSMCjiyqETx0WuHkrVj-27">
          <mxGeometry x="30" y="70" width="70" height="56.00000000000001" as="geometry" />
        </mxCell>
        <mxCell id="hBSMCjiyqETx0WuHkrVj-5" value="Linux Function App" style="image;aspect=fixed;html=1;points=[];align=center;fontSize=12;image=img/lib/azure2/compute/Function_Apps.svg;" vertex="1" parent="hBSMCjiyqETx0WuHkrVj-27">
          <mxGeometry x="205" y="68" width="68" height="60" as="geometry" />
        </mxCell>
        <mxCell id="hBSMCjiyqETx0WuHkrVj-21" value="Azure Storage" style="verticalLabelPosition=bottom;html=1;verticalAlign=top;align=center;strokeColor=none;fillColor=#00BEF2;shape=mxgraph.azure.storage;pointerEvents=1;" vertex="1" parent="hBSMCjiyqETx0WuHkrVj-27">
          <mxGeometry x="380" y="72" width="50" height="40" as="geometry" />
        </mxCell>
        <mxCell id="hBSMCjiyqETx0WuHkrVj-22" value="" style="endArrow=none;html=1;rounded=0;" edge="1" parent="hBSMCjiyqETx0WuHkrVj-27" source="hBSMCjiyqETx0WuHkrVj-4" target="hBSMCjiyqETx0WuHkrVj-5">
          <mxGeometry width="50" height="50" relative="1" as="geometry">
            <mxPoint x="130" y="120" as="sourcePoint" />
            <mxPoint x="180" y="70" as="targetPoint" />
          </mxGeometry>
        </mxCell>
        <mxCell id="hBSMCjiyqETx0WuHkrVj-23" value="" style="endArrow=none;html=1;rounded=0;" edge="1" parent="hBSMCjiyqETx0WuHkrVj-27">
          <mxGeometry width="50" height="50" relative="1" as="geometry">
            <mxPoint x="273" y="96.5" as="sourcePoint" />
            <mxPoint x="378" y="96.5" as="targetPoint" />
          </mxGeometry>
        </mxCell>
        <mxCell id="hBSMCjiyqETx0WuHkrVj-24" value="Application Insight" style="image;aspect=fixed;html=1;points=[];align=center;fontSize=12;image=img/lib/azure2/devops/Application_Insights.svg;" vertex="1" parent="hBSMCjiyqETx0WuHkrVj-27">
          <mxGeometry x="220" y="210" width="44" height="63" as="geometry" />
        </mxCell>
        <mxCell id="hBSMCjiyqETx0WuHkrVj-25" value="" style="endArrow=none;html=1;rounded=0;" edge="1" parent="hBSMCjiyqETx0WuHkrVj-27" source="hBSMCjiyqETx0WuHkrVj-24" target="hBSMCjiyqETx0WuHkrVj-5">
          <mxGeometry width="50" height="50" relative="1" as="geometry">
            <mxPoint x="130" y="120" as="sourcePoint" />
            <mxPoint x="180" y="70" as="targetPoint" />
          </mxGeometry>
        </mxCell>
      </root>
    </mxGraphModel>
  </diagram>
</mxfile>
